<?xml version="1.0" encoding="utf-8"?>
<!-- Generator: Adobe Illustrator 15.0.0, SVG Export Plug-In . SVG Version: 6.00 Build 0)  -->
<!DOCTYPE svg PUBLIC "-//W3C//DTD SVG 1.1//EN" "http://www.w3.org/Graphics/SVG/1.1/DTD/svg11.dtd">
<svg version="1.1" id="Layer_1" xmlns="http://www.w3.org/2000/svg" xmlns:xlink="http://www.w3.org/1999/xlink" x="0px" y="0px"
	 width="760px" height="40px" viewBox="0 0 760 40" enable-background="new 0 0 760 40" xml:space="preserve">
<polyline fill="none" stroke="#000000" stroke-miterlimit="10" points="25.252,33.692 12.17,20.611 25.252,7.529 "/>
<polyline fill="none" stroke="#000000" stroke-miterlimit="10" points="55.579,33.692 68.661,20.611 55.579,7.529 "/>
<line fill="none" stroke="#000000" stroke-miterlimit="10" x1="85.775" y1="7.53" x2="112.775" y2="34.529"/>
<line fill="none" stroke="#000000" stroke-miterlimit="10" x1="85.775" y1="34.527" x2="112.775" y2="7.529"/>
<polyline fill="none" stroke="#000000" stroke-miterlimit="10" points="151.536,19.994 140.066,31.463 128.595,19.994 "/>
<line fill="none" stroke="#000000" stroke-miterlimit="10" x1="140.065" y1="31.072" x2="140.065" y2="8.072"/>
<g id="Page-1_1_">
	<g id="icon-112-search-plus">
		<path id="search-plus" d="M296.812,17.811v-2.757h0.688v2.757h2.758V18.5H297.5v2.757h-0.688V18.5h-2.758v-0.689H296.812
			L296.812,17.811z M301.048,22.536c-1.035,0.92-2.398,1.479-3.893,1.479c-3.235,0-5.859-2.624-5.859-5.86s2.624-5.86,5.859-5.86
			c3.236,0,5.86,2.624,5.86,5.86c0,1.494-0.559,2.857-1.479,3.892l0.101-0.101l4.486,4.487c0.19,0.189,0.186,0.494-0.005,0.684
			c-0.191,0.191-0.497,0.193-0.685,0.005l-4.486-4.486L301.048,22.536L301.048,22.536L301.048,22.536z M297.155,23.326
			c2.856,0,5.171-2.314,5.171-5.17c0-2.855-2.314-5.17-5.171-5.17c-2.855,0-5.17,2.315-5.17,5.17
			C291.985,21.011,294.3,23.326,297.155,23.326L297.155,23.326z"/>
	</g>
</g>
<polyline fill="none" stroke="#000000" stroke-miterlimit="10" points="190.616,14.61 180.431,24.794 170.245,14.61 "/>
<polyline fill="none" stroke="#000000" stroke-miterlimit="10" points="209.744,25.147 219.93,14.964 230.115,25.147 "/>
<polyline fill="none" stroke="#000000" stroke-width="2" stroke-miterlimit="10" points="651.405,10.989 659.926,2.471 
	668.446,10.989 "/>
<polyline fill="none" stroke="#000000" stroke-width="2" stroke-miterlimit="10" points="651.405,38.182 659.926,29.663 
	668.446,38.182 "/>
<polyline fill="none" stroke="#FFFFFF" stroke-width="2" stroke-miterlimit="10" points="690.817,10.989 699.338,2.471 
	707.858,10.989 "/>
<polyline fill="none" stroke="#FFFFFF" stroke-width="2" stroke-miterlimit="10" points="690.817,38.182 699.338,29.663 
	707.858,38.182 "/>
<line fill="none" stroke="#010202" stroke-width="2" stroke-miterlimit="10" x1="248.819" y1="13" x2="270.819" y2="13"/>
<line fill="none" stroke="#010202" stroke-width="2" stroke-miterlimit="10" x1="248.819" y1="20" x2="270.819" y2="20"/>
<line fill="none" stroke="#010202" stroke-width="2" stroke-miterlimit="10" x1="248.819" y1="27" x2="270.819" y2="27"/>
<polyline fill="none" stroke="#FFFFFF" stroke-miterlimit="10" points="345.692,33.692 332.61,20.611 345.692,7.529 "/>
<polyline fill="none" stroke="#FFFFFF" stroke-miterlimit="10" points="376.019,33.692 389.101,20.611 376.019,7.529 "/>
<line fill="none" stroke="#FFFFFF" stroke-miterlimit="10" x1="406.214" y1="7.53" x2="433.214" y2="34.529"/>
<line fill="none" stroke="#FFFFFF" stroke-miterlimit="10" x1="406.214" y1="34.527" x2="433.214" y2="7.529"/>
<polyline fill="none" stroke="#FFFFFF" stroke-miterlimit="10" points="471.976,19.994 460.505,31.463 449.034,19.994 "/>
<line fill="none" stroke="#FFFFFF" stroke-miterlimit="10" x1="460.505" y1="31.072" x2="460.505" y2="8.072"/>
<g id="Page-1_2_">
	<g id="icon-112-search-plus_1_">
		<path id="search-plus_1_" fill="#FFFFFF" d="M617.251,17.811v-2.757h0.688v2.757h2.758V18.5h-2.758v2.757h-0.688V18.5h-2.758
			v-0.689H617.251L617.251,17.811z M621.487,22.536c-1.035,0.92-2.398,1.479-3.893,1.479c-3.235,0-5.859-2.624-5.859-5.86
			s2.624-5.86,5.859-5.86c3.236,0,5.86,2.624,5.86,5.86c0,1.494-0.559,2.857-1.479,3.892l0.101-0.101l4.486,4.487
			c0.19,0.189,0.186,0.494-0.005,0.684c-0.191,0.191-0.497,0.193-0.685,0.005l-4.486-4.486L621.487,22.536L621.487,22.536
			L621.487,22.536z M617.595,23.326c2.856,0,5.171-2.314,5.171-5.17c0-2.855-2.314-5.17-5.171-5.17c-2.855,0-5.17,2.315-5.17,5.17
			C612.425,21.011,614.739,23.326,617.595,23.326L617.595,23.326z"/>
	</g>
</g>
<polyline fill="none" stroke="#FFFFFF" stroke-miterlimit="10" points="511.056,14.61 500.87,24.794 490.685,14.61 "/>
<polyline fill="none" stroke="#FFFFFF" stroke-miterlimit="10" points="530.184,25.147 540.369,14.964 550.555,25.147 "/>
<line fill="none" stroke="#FFFFFF" stroke-width="2" stroke-miterlimit="10" x1="569.259" y1="13" x2="591.259" y2="13"/>
<line fill="none" stroke="#FFFFFF" stroke-width="2" stroke-miterlimit="10" x1="569.259" y1="20" x2="591.259" y2="20"/>
<line fill="none" stroke="#FFFFFF" stroke-width="2" stroke-miterlimit="10" x1="569.259" y1="27" x2="591.259" y2="27"/>
</svg>
