<?xml version="1.0" encoding="utf-8"?>
<!-- Generator: Adobe Illustrator 15.0.0, SVG Export Plug-In . SVG Version: 6.00 Build 0)  -->
<!DOCTYPE svg PUBLIC "-//W3C//DTD SVG 1.1//EN" "http://www.w3.org/Graphics/SVG/1.1/DTD/svg11.dtd">
<svg version="1.1" id="Layer_1" xmlns="http://www.w3.org/2000/svg" xmlns:xlink="http://www.w3.org/1999/xlink" x="0px" y="0px"
	 width="180px" height="50px" viewBox="0 0 180 50" enable-background="new 0 0 180 50" xml:space="preserve">
<g>
	<path fill="#FFFFFF" d="M29.489,3.091l1.799-1.861h4.496v39.701c0,3.66,0.644,4.498,4.05,4.561v2.893H22.293v-2.893
		c3.278-0.063,3.983-0.832,3.983-4.494V11.059c0-3.6-1.477-5.979-5.523-5.979c-3.343,0-5.528,1.736-5.528,7.586v3.018h7.456
		l-1.028,4.881h-6.361v20.434c0,3.594,0.644,4.432,3.791,4.494v2.893H1.799v-2.893c3.212-0.063,3.918-0.832,3.918-4.494V20.563
		H1.799V17.29l3.918-1.607v-2.379c0-8.862,6.233-12.525,14.52-12.525C24.221,0.778,27.049,1.485,29.489,3.091z"/>
	<path fill="#FFFFFF" d="M78.209,44.272v2.637L67.93,49.222h-0.963c-0.644-0.967-1.542-2.764-1.734-5.205
		c-2.506,3.082-5.912,5.205-10.795,5.205c-5.524,0-9.186-2.764-9.186-9.125V25.706c0-4.691-0.644-5.336-3.791-5.462v-2.829
		l11.821-2.245h1.543v22.679c0,3.469,1.156,5.205,4.112,5.205c2.183,0,3.852-0.775,5.78-2.381V25.706
		c0-4.691-0.706-5.336-3.855-5.462v-2.829l11.823-2.245h1.541v23.642C74.225,43.503,74.933,44.017,78.209,44.272z"/>
	<path fill="#FFFFFF" d="M98.083,45.491v2.893H80.735v-2.893c3.212-0.063,3.919-0.832,3.919-4.494v-29.75
		c0-4.687-0.963-5.33-4.174-5.455V2.96l11.563-1.73h0.962c0.579,0.963,1.156,3.018,1.156,6.355v33.539
		C94.161,44.591,94.74,45.429,98.083,45.491z M111.831,41.96c1.8,2.824,3.148,3.275,5.268,3.531v2.893H105.15L94.677,31.681
		l8.287-9.061c0.709-0.832,1.093-1.544,1.093-2.182c0-1.031-1.093-1.736-3.084-1.8v-2.956h14.647v2.956
		c-2.568,0.318-4.239,1.543-6.68,4.112l-5.719,6.037L111.831,41.96z"/>
	<path fill="#FFFFFF" d="M146.1,41.38l1.605,2.637c-3.472,3.404-7.711,5.137-13.429,5.137c-9.959,0-15.804-6.295-15.804-17.217
		c0-10.86,6.296-17.09,15.61-17.09c10.022,0,14.199,5.974,14.199,15.803v2.762h-19.53c0.19,7.262,2.697,10.217,8.801,10.217
		C140.314,43.628,143.398,42.858,146.1,41.38z M128.814,29.044h9.958c0-7.773-1.284-10.211-4.689-10.211
		C130.871,18.833,129.264,21.207,128.814,29.044z"/>
	<path fill="#3FBCED" d="M169.504,17.157l5.524,7.581l-4.306,3.282l-5.589-7.776l-5.396,7.581l-4.24-3.213l5.524-7.455l-8.864-3.018
		l1.734-5.075l8.737,3.083V2.898h5.27v9.249l8.736-2.957l1.605,5.08L169.504,17.157z"/>
</g>
</svg>
